<?xml version="1.0" encoding="iso-8859-1"?>
<!-- Generator: Adobe Illustrator 22.0.1, SVG Export Plug-In . SVG Version: 6.00 Build 0)  -->
<svg version="1.1" id="Layer_1" xmlns="http://www.w3.org/2000/svg" xmlns:xlink="http://www.w3.org/1999/xlink" x="0px" y="0px"
	 viewBox="0 0 2048 2048" style="enable-background:new 0 0 2048 2048;" xml:space="preserve">
<g>
	<g>
		<path style="fill:#CFD8DD;" d="M1303.413,1025.017V663.449c0-153.889-125.904-281.803-279.793-281.597
			c-153.895,0.206-279.033,125.47-279.033,279.412v82.191c0,34.753-28.173,62.926-62.926,62.926h0
			c-34.753,0-62.926-28.173-62.926-62.926v-82.191c0-54.682,10.724-107.763,31.873-157.766
			c20.415-48.266,49.627-91.6,86.825-128.799c37.2-37.199,80.534-66.411,128.799-86.825C916.236,266.724,969.316,256,1023.999,256
			c54.683,0,107.763,10.724,157.767,31.874c48.265,20.414,91.6,49.627,128.799,86.825c37.198,37.198,66.41,80.532,86.826,128.799
			c21.15,50.003,31.874,103.082,31.874,157.766v363.752H1303.413z"/>
		<path style="fill:#F7E07F;" d="M1553.511,1792H494.489c-22.091,0-40-17.909-40-40V961.791c0-22.091,17.909-40,40-40h1059.022
			c22.091,0,40,17.909,40,40V1752C1593.511,1774.091,1575.603,1792,1553.511,1792z"/>
	</g>
	<g>
		<path style="fill:#EBCD6D;" d="M1077.454,1377.325v172.107H970.546v-172.107c-35.556-19.074-59.728-56.609-59.728-99.783
			c0-62.511,50.671-113.182,113.182-113.182s113.182,50.671,113.182,113.182C1137.182,1320.715,1113.01,1358.251,1077.454,1377.325z
			"/>
	</g>
</g>
</svg>
