<?xml version="1.0" encoding="UTF-8"?>
<!DOCTYPE svg PUBLIC "-//W3C//DTD SVG 1.1//EN" "http://www.w3.org/Graphics/SVG/1.1/DTD/svg11.dtd">
<!-- Creator: CorelDRAW -->
<svg xmlns="http://www.w3.org/2000/svg" xml:space="preserve" width="6.82666in" height="6.82666in" style="shape-rendering:geometricPrecision; text-rendering:geometricPrecision; image-rendering:optimizeQuality; fill-rule:evenodd; clip-rule:evenodd"
viewBox="0 0 6.82666 6.82666"
 xmlns:xlink="http://www.w3.org/1999/xlink">
 <defs>
  <style type="text/css">
   <![CDATA[
    .fil0 {fill:none}
    .fil4 {fill:#E65100}
    .fil3 {fill:#F57C00}
    .fil2 {fill:#FB8C00}
    .fil1 {fill:#FB8C00;fill-rule:nonzero}
   ]]>
  </style>
 </defs>
 <g id="Layer_x0020_1">
  <metadata id="CorelCorpID_0Corel-Layer"/>
  <g id="_486845848">
   <rect id="_486845824" class="fil0" width="6.82666" height="6.82666"/>
   <rect id="_486846016" class="fil0" x="0.853331" y="0.853331" width="5.12" height="5.12"/>
  </g>
  <path class="fil1" d="M4.39191 1.2542c0.251303,0.251228 0.407224,0.597134 0.407224,0.977362l-0.23113 0c0,-0.317008 -0.129646,-0.605059 -0.338602,-0.813949 -0.825394,-0.789012 -1.91591,-0.149642 -1.97073,0.813949l-0.23113 0c0,-0.380228 0.155921,-0.726134 0.407224,-0.977362 0.539579,-0.539402 1.41757,-0.539402 1.95715,0zm0.407224 0.977362l0 0.926169 -0.23113 0 0 -0.926169c0,-0.0638228 0.0517441,-0.115567 0.115567,-0.115567 0.0638189,0 0.115563,0.0517441 0.115563,0.115567zm-2.54046 0l0 0.926169 -0.23113 0 0 -0.926169c0,-0.0638228 0.0517441,-0.115567 0.115563,-0.115567 0.0638228,0 0.115567,0.0517441 0.115567,0.115567z"/>
  <g id="_486845488">
   <path id="_486845584" class="fil2" d="M3.41333 3.12927l-2.07842 0c-0.0483386,0 -0.0833465,0.0350197 -0.0833465,0.0833858l0 2.67716c0,0.0483976 0.034937,0.0835157 0.0833465,0.0835157l2.07842 0 0 -0.666315 0 -1.51144 0 -0.666307z"/>
   <path id="_486846280" class="fil3" d="M5.49172 3.12927l-2.0763 0 -0.00208661 0 0 0.666307 0.00164567 1.1811e-005 -0.000996063 1.51142 -0.000649606 7.87402e-006 0 0.666315 0.000212598 0 2.07818 0c0.0447126,0 0.083374,-0.0385591 0.083374,-0.0835157l0 -2.67716c0,-0.0449213 -0.0386929,-0.0833858 -0.083374,-0.0833858z"/>
   <path id="_486844888" class="fil4" d="M3.73513 3.92888c-0.0823661,-0.0823622 -0.196142,-0.133307 -0.321799,-0.133307 -0.125657,0 -0.239433,0.0509449 -0.321799,0.133307 -0.0823583,0.0823622 -0.133299,0.196138 -0.133299,0.321795 0,0.125657 0.0509409,0.239433 0.133299,0.321791 0.0566181,0.0566142 0.128071,0.0983819 0.20802,0.118965l0 0.501799c0,0.0628386 0.0509449,0.11378 0.11378,0.11378 0.0628346,0 0.11378,-0.0509409 0.11378,-0.11378l0 -0.501799c0.0799488,-0.0205827 0.151402,-0.0623504 0.20802,-0.118965 0.0823583,-0.0823583 0.133299,-0.196134 0.133299,-0.321791 0,-0.125657 -0.0509409,-0.239433 -0.133299,-0.321795z"/>
  </g>
 </g>
</svg>
